<svg width="197" height="15" viewBox="0 0 197 15" fill="none" xmlns="http://www.w3.org/2000/svg">
<path d="M5.782 11.14C5.082 11.14 4.42867 11.0093 3.822 10.748C3.21533 10.4867 2.67867 10.1273 2.212 9.67C1.75467 9.20333 1.39533 8.66667 1.134 8.06C0.872667 7.45333 0.742 6.8 0.742 6.1C0.742 5.4 0.872667 4.74667 1.134 4.14C1.39533 3.53333 1.75467 3.00133 2.212 2.544C2.67867 2.07733 3.21533 1.71333 3.822 1.452C4.42867 1.19067 5.082 1.06 5.782 1.06C6.482 1.06 7.13533 1.19067 7.742 1.452C8.34867 1.71333 8.88067 2.07733 9.338 2.544C9.80467 3.00133 10.1687 3.53333 10.43 4.14C10.6913 4.74667 10.822 5.4 10.822 6.1C10.822 6.8 10.6913 7.45333 10.43 8.06C10.1687 8.66667 9.80467 9.20333 9.338 9.67C8.88067 10.1273 8.34867 10.4867 7.742 10.748C7.13533 11.0093 6.482 11.14 5.782 11.14ZM5.782 10.272C6.35133 10.272 6.88333 10.1647 7.378 9.95C7.87267 9.726 8.30667 9.42267 8.68 9.04C9.05333 8.65733 9.34733 8.214 9.562 7.71C9.77667 7.206 9.884 6.66933 9.884 6.1C9.884 5.53067 9.77667 4.994 9.562 4.49C9.34733 3.986 9.05333 3.54267 8.68 3.16C8.30667 2.77733 7.87267 2.47867 7.378 2.264C6.88333 2.04 6.35133 1.928 5.782 1.928C5.21267 1.928 4.68067 2.04 4.186 2.264C3.69133 2.47867 3.25733 2.77733 2.884 3.16C2.51067 3.54267 2.21667 3.986 2.002 4.49C1.79667 4.994 1.694 5.53067 1.694 6.1C1.694 6.66933 1.79667 7.206 2.002 7.71C2.21667 8.214 2.51067 8.65733 2.884 9.04C3.25733 9.42267 3.69133 9.726 4.186 9.95C4.68067 10.1647 5.21267 10.272 5.782 10.272ZM5.782 8.788C5.306 8.788 4.9 8.69 4.564 8.494C4.228 8.28867 3.96667 8.02267 3.78 7.696C3.60267 7.36 3.50467 6.98667 3.486 6.576C3.486 6.492 3.48133 6.38933 3.472 6.268C3.472 6.14667 3.472 6.02533 3.472 5.904C3.48133 5.78267 3.486 5.68 3.486 5.596C3.50467 5.18533 3.60267 4.81667 3.78 4.49C3.96667 4.154 4.228 3.888 4.564 3.692C4.9 3.48667 5.306 3.384 5.782 3.384C6.30467 3.384 6.734 3.468 7.07 3.636C7.406 3.79467 7.65333 3.99533 7.812 4.238C7.97067 4.47133 8.05467 4.70467 8.064 4.938C8.064 5.03133 8.036 5.106 7.98 5.162C7.924 5.218 7.84933 5.246 7.756 5.246H7.308C7.20533 5.246 7.13067 5.218 7.084 5.162C7.03733 5.106 7 5.04533 6.972 4.98C6.89733 4.76533 6.76667 4.602 6.58 4.49C6.40267 4.378 6.13667 4.322 5.782 4.322C5.45533 4.322 5.20333 4.392 5.026 4.532C4.84867 4.66267 4.72267 4.83067 4.648 5.036C4.58267 5.232 4.54533 5.42333 4.536 5.61C4.536 5.694 4.53133 5.79667 4.522 5.918C4.522 6.03 4.522 6.14667 4.522 6.268C4.53133 6.38 4.536 6.478 4.536 6.562C4.54533 6.73933 4.58267 6.93067 4.648 7.136C4.72267 7.34133 4.84867 7.514 5.026 7.654C5.20333 7.78467 5.45533 7.85 5.782 7.85C6.13667 7.85 6.40267 7.794 6.58 7.682C6.76667 7.57 6.89733 7.40667 6.972 7.192C7 7.12667 7.03733 7.066 7.084 7.01C7.13067 6.954 7.20533 6.926 7.308 6.926H7.756C7.84933 6.926 7.924 6.954 7.98 7.01C8.036 7.066 8.064 7.14067 8.064 7.234C8.05467 7.458 7.97067 7.69133 7.812 7.934C7.65333 8.17667 7.406 8.382 7.07 8.55C6.734 8.70867 6.30467 8.788 5.782 8.788ZM19.744 11.14C18.8854 11.14 18.1714 10.9813 17.602 10.664C17.042 10.3467 16.6174 9.90333 16.328 9.334C16.0387 8.76467 15.88 8.102 15.852 7.346C15.8427 6.96333 15.838 6.55267 15.838 6.114C15.838 5.67533 15.8427 5.25533 15.852 4.854C15.88 4.098 16.0387 3.43533 16.328 2.866C16.6174 2.29667 17.042 1.85333 17.602 1.536C18.1714 1.21867 18.8854 1.06 19.744 1.06C20.388 1.06 20.9527 1.14867 21.438 1.326C21.9234 1.50333 22.3247 1.74133 22.642 2.04C22.9687 2.33867 23.216 2.67467 23.384 3.048C23.552 3.412 23.6454 3.79 23.664 4.182C23.6734 4.266 23.6454 4.336 23.58 4.392C23.524 4.448 23.454 4.476 23.37 4.476H22.6C22.516 4.476 22.4414 4.45267 22.376 4.406C22.32 4.35933 22.278 4.27533 22.25 4.154C22.0914 3.426 21.7927 2.92667 21.354 2.656C20.9247 2.38533 20.3834 2.25 19.73 2.25C18.9834 2.25 18.3907 2.46467 17.952 2.894C17.5134 3.314 17.2754 3.99067 17.238 4.924C17.21 5.68933 17.21 6.47333 17.238 7.276C17.2754 8.20933 17.5134 8.89067 17.952 9.32C18.3907 9.74 18.9834 9.95 19.73 9.95C20.3834 9.95 20.9247 9.81467 21.354 9.544C21.7927 9.27333 22.0914 8.774 22.25 8.046C22.278 7.92467 22.32 7.84067 22.376 7.794C22.4414 7.74733 22.516 7.724 22.6 7.724H23.37C23.454 7.724 23.524 7.752 23.58 7.808C23.6454 7.864 23.6734 7.934 23.664 8.018C23.6454 8.41 23.552 8.79267 23.384 9.166C23.216 9.53 22.9687 9.86133 22.642 10.16C22.3247 10.4587 21.9234 10.6967 21.438 10.874C20.9527 11.0513 20.388 11.14 19.744 11.14ZM28.3403 11.14C27.6309 11.14 27.0383 11.0047 26.5623 10.734C26.0863 10.4633 25.7223 10.09 25.4703 9.614C25.2183 9.12867 25.0783 8.578 25.0503 7.962C25.0409 7.80333 25.0363 7.60267 25.0363 7.36C25.0363 7.108 25.0409 6.90733 25.0503 6.758C25.0783 6.13267 25.2183 5.582 25.4703 5.106C25.7316 4.63 26.1003 4.25667 26.5763 3.986C27.0523 3.71533 27.6403 3.58 28.3403 3.58C29.0403 3.58 29.6283 3.71533 30.1043 3.986C30.5803 4.25667 30.9443 4.63 31.1963 5.106C31.4576 5.582 31.6023 6.13267 31.6303 6.758C31.6396 6.90733 31.6443 7.108 31.6443 7.36C31.6443 7.60267 31.6396 7.80333 31.6303 7.962C31.6023 8.578 31.4623 9.12867 31.2103 9.614C30.9583 10.09 30.5943 10.4633 30.1183 10.734C29.6423 11.0047 29.0496 11.14 28.3403 11.14ZM28.3403 10.062C28.9189 10.062 29.3809 9.88 29.7263 9.516C30.0716 9.14267 30.2583 8.60133 30.2863 7.892C30.2956 7.752 30.3003 7.57467 30.3003 7.36C30.3003 7.14533 30.2956 6.968 30.2863 6.828C30.2583 6.11867 30.0716 5.582 29.7263 5.218C29.3809 4.84467 28.9189 4.658 28.3403 4.658C27.7616 4.658 27.2949 4.84467 26.9403 5.218C26.5949 5.582 26.4129 6.11867 26.3943 6.828C26.3849 6.968 26.3803 7.14533 26.3803 7.36C26.3803 7.57467 26.3849 7.752 26.3943 7.892C26.4129 8.60133 26.5949 9.14267 26.9403 9.516C27.2949 9.88 27.7616 10.062 28.3403 10.062ZM33.7333 13.66C33.64 13.66 33.5607 13.6273 33.4953 13.562C33.4393 13.506 33.4113 13.4313 33.4113 13.338V4.042C33.4113 3.94867 33.4393 3.874 33.4953 3.818C33.5607 3.75267 33.64 3.72 33.7333 3.72H34.3773C34.4707 3.72 34.5453 3.75267 34.6013 3.818C34.6667 3.874 34.6993 3.94867 34.6993 4.042V4.658C34.9233 4.35 35.222 4.09333 35.5953 3.888C35.9687 3.68267 36.4353 3.58 36.9953 3.58C37.518 3.58 37.9613 3.66867 38.3253 3.846C38.6987 4.02333 39.002 4.266 39.2353 4.574C39.478 4.882 39.66 5.232 39.7813 5.624C39.9027 6.016 39.968 6.436 39.9773 6.884C39.9867 7.03333 39.9913 7.192 39.9913 7.36C39.9913 7.528 39.9867 7.68667 39.9773 7.836C39.968 8.27467 39.9027 8.69467 39.7813 9.096C39.66 9.488 39.478 9.838 39.2353 10.146C39.002 10.4447 38.6987 10.6873 38.3253 10.874C37.9613 11.0513 37.518 11.14 36.9953 11.14C36.454 11.14 35.9967 11.042 35.6233 10.846C35.2593 10.6407 34.9607 10.3887 34.7273 10.09V13.338C34.7273 13.4313 34.6993 13.506 34.6433 13.562C34.5873 13.6273 34.508 13.66 34.4053 13.66H33.7333ZM36.7013 10.006C37.1867 10.006 37.5647 9.90333 37.8353 9.698C38.1153 9.48333 38.316 9.208 38.4373 8.872C38.5587 8.52667 38.6287 8.158 38.6473 7.766C38.6567 7.49533 38.6567 7.22467 38.6473 6.954C38.6287 6.562 38.5587 6.198 38.4373 5.862C38.316 5.51667 38.1153 5.24133 37.8353 5.036C37.5647 4.82133 37.1867 4.714 36.7013 4.714C36.244 4.714 35.8707 4.82133 35.5813 5.036C35.3013 5.25067 35.0913 5.526 34.9513 5.862C34.8207 6.18867 34.746 6.52467 34.7273 6.87C34.718 7.01933 34.7133 7.19667 34.7133 7.402C34.7133 7.60733 34.718 7.78933 34.7273 7.948C34.7367 8.27467 34.8113 8.59667 34.9513 8.914C35.1007 9.23133 35.32 9.49267 35.6093 9.698C35.8987 9.90333 36.2627 10.006 36.7013 10.006ZM42.7377 13.66C42.6631 13.66 42.5977 13.632 42.5417 13.576C42.4857 13.52 42.4577 13.4547 42.4577 13.38C42.4577 13.3427 42.4624 13.3053 42.4717 13.268C42.4811 13.2307 42.4997 13.184 42.5277 13.128L43.6057 10.566L40.9317 4.252C40.8851 4.14 40.8617 4.06067 40.8617 4.014C40.8617 3.93 40.8897 3.86 40.9457 3.804C41.0017 3.748 41.0717 3.72 41.1557 3.72H41.8417C41.9351 3.72 42.0097 3.74333 42.0657 3.79C42.1217 3.83667 42.1591 3.89267 42.1777 3.958L44.3057 9.054L46.4897 3.958C46.5177 3.89267 46.5551 3.83667 46.6017 3.79C46.6577 3.74333 46.7371 3.72 46.8397 3.72H47.4977C47.5817 3.72 47.6517 3.748 47.7077 3.804C47.7637 3.86 47.7917 3.92533 47.7917 4C47.7917 4.04667 47.7684 4.13067 47.7217 4.252L43.7457 13.422C43.7177 13.4873 43.6757 13.5433 43.6197 13.59C43.5731 13.6367 43.4984 13.66 43.3957 13.66H42.7377ZM49.4967 11C49.4033 11 49.324 10.972 49.2587 10.916C49.2027 10.8507 49.1747 10.7713 49.1747 10.678V4.056C49.1747 3.96267 49.2027 3.88333 49.2587 3.818C49.324 3.75267 49.4033 3.72 49.4967 3.72H50.1407C50.234 3.72 50.3133 3.75267 50.3787 3.818C50.444 3.88333 50.4767 3.96267 50.4767 4.056V4.672C50.6633 4.35467 50.92 4.11667 51.2467 3.958C51.5733 3.79933 51.9653 3.72 52.4227 3.72H52.9827C53.076 3.72 53.1507 3.75267 53.2067 3.818C53.2627 3.874 53.2907 3.94867 53.2907 4.042V4.616C53.2907 4.70933 53.2627 4.784 53.2067 4.84C53.1507 4.896 53.076 4.924 52.9827 4.924H52.1427C51.6387 4.924 51.242 5.07333 50.9527 5.372C50.6633 5.66133 50.5187 6.058 50.5187 6.562V10.678C50.5187 10.7713 50.486 10.8507 50.4207 10.916C50.3553 10.972 50.276 11 50.1827 11H49.4967ZM54.815 11C54.7217 11 54.6424 10.972 54.577 10.916C54.521 10.8507 54.493 10.7713 54.493 10.678V4.042C54.493 3.94867 54.521 3.874 54.577 3.818C54.6424 3.75267 54.7217 3.72 54.815 3.72H55.487C55.5804 3.72 55.655 3.75267 55.711 3.818C55.767 3.874 55.795 3.94867 55.795 4.042V10.678C55.795 10.7713 55.767 10.8507 55.711 10.916C55.655 10.972 55.5804 11 55.487 11H54.815ZM54.703 2.362C54.6097 2.362 54.5304 2.334 54.465 2.278C54.409 2.21267 54.381 2.13333 54.381 2.04V1.284C54.381 1.19067 54.409 1.116 54.465 1.06C54.5304 0.994666 54.6097 0.962 54.703 0.962H55.585C55.6784 0.962 55.753 0.994666 55.809 1.06C55.8744 1.116 55.907 1.19067 55.907 1.284V2.04C55.907 2.13333 55.8744 2.21267 55.809 2.278C55.753 2.334 55.6784 2.362 55.585 2.362H54.703ZM60.8657 14.08C60.231 14.08 59.7083 13.996 59.2977 13.828C58.8963 13.66 58.579 13.4547 58.3457 13.212C58.1217 12.9787 57.9583 12.7407 57.8557 12.498C57.7623 12.2647 57.711 12.078 57.7017 11.938C57.6923 11.8447 57.7203 11.7653 57.7857 11.7C57.8603 11.6347 57.9397 11.602 58.0237 11.602H58.6957C58.7797 11.602 58.8497 11.6207 58.9057 11.658C58.9617 11.6953 59.0083 11.7747 59.0457 11.896C59.1017 12.036 59.1857 12.19 59.2977 12.358C59.4097 12.5353 59.5823 12.6847 59.8157 12.806C60.049 12.9367 60.3757 13.002 60.7957 13.002C61.2343 13.002 61.603 12.9413 61.9017 12.82C62.2003 12.708 62.4243 12.5027 62.5737 12.204C62.7323 11.9147 62.8117 11.5133 62.8117 11V10.048C62.5877 10.3373 62.2937 10.58 61.9297 10.776C61.5657 10.9627 61.1083 11.056 60.5577 11.056C60.035 11.056 59.587 10.9673 59.2137 10.79C58.8403 10.6033 58.5323 10.356 58.2897 10.048C58.0563 9.73067 57.879 9.37133 57.7577 8.97C57.6457 8.56867 57.5803 8.14867 57.5617 7.71C57.5523 7.44867 57.5523 7.192 57.5617 6.94C57.5803 6.50133 57.6457 6.08133 57.7577 5.68C57.879 5.27867 58.0563 4.91933 58.2897 4.602C58.5323 4.28467 58.8403 4.03733 59.2137 3.86C59.587 3.67333 60.035 3.58 60.5577 3.58C61.1177 3.58 61.5797 3.68733 61.9437 3.902C62.317 4.10733 62.6203 4.35933 62.8537 4.658V4.056C62.8537 3.96267 62.8817 3.88333 62.9377 3.818C63.003 3.75267 63.0823 3.72 63.1757 3.72H63.8197C63.913 3.72 63.9923 3.75267 64.0577 3.818C64.123 3.88333 64.1557 3.96267 64.1557 4.056V10.846C64.1557 11.4713 64.0483 12.0267 63.8337 12.512C63.6283 12.9973 63.283 13.38 62.7977 13.66C62.3217 13.94 61.6777 14.08 60.8657 14.08ZM60.8377 9.936C61.3043 9.936 61.6777 9.82867 61.9577 9.614C62.247 9.39933 62.457 9.12867 62.5877 8.802C62.7277 8.47533 62.8023 8.144 62.8117 7.808C62.821 7.67733 62.8257 7.51867 62.8257 7.332C62.8257 7.136 62.821 6.97267 62.8117 6.842C62.8023 6.506 62.7277 6.17467 62.5877 5.848C62.457 5.52133 62.247 5.25067 61.9577 5.036C61.6777 4.82133 61.3043 4.714 60.8377 4.714C60.371 4.714 59.9977 4.82133 59.7177 5.036C59.4377 5.24133 59.237 5.51667 59.1157 5.862C58.9943 6.198 58.9243 6.562 58.9057 6.954C58.8963 7.19667 58.8963 7.444 58.9057 7.696C58.9243 8.088 58.9943 8.45667 59.1157 8.802C59.237 9.138 59.4377 9.41333 59.7177 9.628C59.9977 9.83333 60.371 9.936 60.8377 9.936ZM66.5732 11C66.4798 11 66.4005 10.972 66.3352 10.916C66.2792 10.8507 66.2512 10.7713 66.2512 10.678V1.382C66.2512 1.28867 66.2792 1.214 66.3352 1.158C66.4005 1.09267 66.4798 1.06 66.5732 1.06H67.2732C67.3758 1.06 67.4552 1.09267 67.5112 1.158C67.5672 1.214 67.5952 1.28867 67.5952 1.382V4.644C67.8472 4.32667 68.1552 4.07 68.5192 3.874C68.8832 3.678 69.3452 3.58 69.9052 3.58C70.5118 3.58 71.0252 3.71533 71.4452 3.986C71.8745 4.24733 72.1965 4.616 72.4112 5.092C72.6352 5.55867 72.7472 6.10467 72.7472 6.73V10.678C72.7472 10.7713 72.7192 10.8507 72.6632 10.916C72.6072 10.972 72.5278 11 72.4252 11H71.7252C71.6318 11 71.5525 10.972 71.4872 10.916C71.4312 10.8507 71.4032 10.7713 71.4032 10.678V6.8C71.4032 6.14667 71.2445 5.638 70.9272 5.274C70.6098 4.90067 70.1432 4.714 69.5272 4.714C68.9485 4.714 68.4818 4.90067 68.1272 5.274C67.7725 5.638 67.5952 6.14667 67.5952 6.8V10.678C67.5952 10.7713 67.5672 10.8507 67.5112 10.916C67.4552 10.972 67.3758 11 67.2732 11H66.5732ZM77.5147 11C76.9921 11 76.5674 10.902 76.2407 10.706C75.9141 10.5007 75.6761 10.216 75.5267 9.852C75.3774 9.47867 75.3027 9.04 75.3027 8.536V4.84H74.2107C74.1174 4.84 74.0381 4.812 73.9727 4.756C73.9167 4.69067 73.8887 4.61133 73.8887 4.518V4.042C73.8887 3.94867 73.9167 3.874 73.9727 3.818C74.0381 3.75267 74.1174 3.72 74.2107 3.72H75.3027V1.382C75.3027 1.28867 75.3307 1.214 75.3867 1.158C75.4521 1.09267 75.5314 1.06 75.6247 1.06H76.2827C76.3761 1.06 76.4507 1.09267 76.5067 1.158C76.5721 1.214 76.6047 1.28867 76.6047 1.382V3.72H78.3407C78.4341 3.72 78.5087 3.75267 78.5647 3.818C78.6301 3.874 78.6627 3.94867 78.6627 4.042V4.518C78.6627 4.61133 78.6301 4.69067 78.5647 4.756C78.5087 4.812 78.4341 4.84 78.3407 4.84H76.6047V8.438C76.6047 8.87667 76.6794 9.222 76.8287 9.474C76.9781 9.726 77.2441 9.852 77.6267 9.852H78.4807C78.5741 9.852 78.6487 9.88467 78.7047 9.95C78.7701 10.006 78.8027 10.0807 78.8027 10.174V10.678C78.8027 10.7713 78.7701 10.8507 78.7047 10.916C78.6487 10.972 78.5741 11 78.4807 11H77.5147ZM84.0771 11C83.9744 11 83.8951 10.972 83.8391 10.916C83.7831 10.8507 83.7551 10.7713 83.7551 10.678V1.536C83.7551 1.43333 83.7831 1.354 83.8391 1.298C83.8951 1.23267 83.9744 1.2 84.0771 1.2H84.7771C84.8798 1.2 84.9591 1.23267 85.0151 1.298C85.0804 1.354 85.1131 1.43333 85.1131 1.536V5.008L88.8511 1.424C88.8884 1.38667 88.9491 1.34 89.0331 1.284C89.1264 1.228 89.2478 1.2 89.3971 1.2H90.1531C90.2278 1.2 90.2931 1.228 90.3491 1.284C90.4051 1.34 90.4331 1.40533 90.4331 1.48C90.4331 1.55467 90.4144 1.61533 90.3771 1.662L86.0511 5.89L90.6571 10.524C90.7038 10.58 90.7271 10.6453 90.7271 10.72C90.7271 10.7947 90.6991 10.86 90.6431 10.916C90.5871 10.972 90.5218 11 90.4471 11H89.6631C89.5044 11 89.3831 10.972 89.2991 10.916C89.2151 10.8507 89.1544 10.804 89.1171 10.776L85.1131 6.828V10.678C85.1131 10.7713 85.0804 10.8507 85.0151 10.916C84.9591 10.972 84.8798 11 84.7771 11H84.0771ZM93.9156 11.14C93.4489 11.14 93.0243 11.0467 92.6416 10.86C92.2589 10.6733 91.9509 10.4213 91.7176 10.104C91.4843 9.78667 91.3676 9.42733 91.3676 9.026C91.3676 8.382 91.6289 7.86867 92.1516 7.486C92.6743 7.10333 93.3556 6.85133 94.1956 6.73L96.2816 6.436V6.03C96.2816 5.582 96.1509 5.232 95.8896 4.98C95.6376 4.728 95.2223 4.602 94.6436 4.602C94.2236 4.602 93.8829 4.686 93.6216 4.854C93.3696 5.022 93.1923 5.23667 93.0896 5.498C93.0336 5.638 92.9356 5.708 92.7956 5.708H92.1656C92.0629 5.708 91.9836 5.68 91.9276 5.624C91.8809 5.55867 91.8576 5.484 91.8576 5.4C91.8576 5.26 91.9089 5.08733 92.0116 4.882C92.1236 4.67667 92.2916 4.476 92.5156 4.28C92.7396 4.084 93.0243 3.92067 93.3696 3.79C93.7243 3.65 94.1536 3.58 94.6576 3.58C95.2176 3.58 95.6889 3.65467 96.0716 3.804C96.4543 3.944 96.7529 4.13533 96.9676 4.378C97.1916 4.62067 97.3503 4.896 97.4436 5.204C97.5463 5.512 97.5976 5.82467 97.5976 6.142V10.678C97.5976 10.7713 97.5649 10.8507 97.4996 10.916C97.4436 10.972 97.3689 11 97.2756 11H96.6316C96.5289 11 96.4496 10.972 96.3936 10.916C96.3376 10.8507 96.3096 10.7713 96.3096 10.678V10.076C96.1883 10.244 96.0249 10.412 95.8196 10.58C95.6143 10.7387 95.3576 10.874 95.0496 10.986C94.7416 11.0887 94.3636 11.14 93.9156 11.14ZM94.2096 10.09C94.5923 10.09 94.9423 10.0107 95.2596 9.852C95.5769 9.684 95.8243 9.42733 96.0016 9.082C96.1883 8.73667 96.2816 8.30267 96.2816 7.78V7.388L94.6576 7.626C93.9949 7.71933 93.4956 7.878 93.1596 8.102C92.8236 8.31667 92.6556 8.592 92.6556 8.928C92.6556 9.18933 92.7303 9.40867 92.8796 9.586C93.0383 9.754 93.2343 9.88 93.4676 9.964C93.7103 10.048 93.9576 10.09 94.2096 10.09ZM99.9322 11C99.8389 11 99.7596 10.972 99.6942 10.916C99.6382 10.8507 99.6102 10.7713 99.6102 10.678V4.056C99.6102 3.96267 99.6382 3.88333 99.6942 3.818C99.7596 3.75267 99.8389 3.72 99.9322 3.72H100.576C100.67 3.72 100.749 3.75267 100.814 3.818C100.88 3.88333 100.912 3.96267 100.912 4.056V4.672C101.099 4.35467 101.356 4.11667 101.682 3.958C102.009 3.79933 102.401 3.72 102.858 3.72H103.418C103.512 3.72 103.586 3.75267 103.642 3.818C103.698 3.874 103.726 3.94867 103.726 4.042V4.616C103.726 4.70933 103.698 4.784 103.642 4.84C103.586 4.896 103.512 4.924 103.418 4.924H102.578C102.074 4.924 101.678 5.07333 101.388 5.372C101.099 5.66133 100.954 6.058 100.954 6.562V10.678C100.954 10.7713 100.922 10.8507 100.856 10.916C100.791 10.972 100.712 11 100.618 11H99.9322ZM106.203 13.66C106.128 13.66 106.063 13.632 106.007 13.576C105.951 13.52 105.923 13.4547 105.923 13.38C105.923 13.3427 105.927 13.3053 105.937 13.268C105.946 13.2307 105.965 13.184 105.993 13.128L107.071 10.566L104.397 4.252C104.35 4.14 104.327 4.06067 104.327 4.014C104.327 3.93 104.355 3.86 104.411 3.804C104.467 3.748 104.537 3.72 104.621 3.72H105.307C105.4 3.72 105.475 3.74333 105.531 3.79C105.587 3.83667 105.624 3.89267 105.643 3.958L107.771 9.054L109.955 3.958C109.983 3.89267 110.02 3.83667 110.067 3.79C110.123 3.74333 110.202 3.72 110.305 3.72H110.963C111.047 3.72 111.117 3.748 111.173 3.804C111.229 3.86 111.257 3.92533 111.257 4C111.257 4.04667 111.233 4.13067 111.187 4.252L107.211 13.422C107.183 13.4873 107.141 13.5433 107.085 13.59C107.038 13.6367 106.963 13.66 106.861 13.66H106.203ZM112.962 11C112.868 11 112.789 10.972 112.724 10.916C112.668 10.8507 112.64 10.7713 112.64 10.678V4.042C112.64 3.94867 112.668 3.874 112.724 3.818C112.789 3.75267 112.868 3.72 112.962 3.72H113.62C113.713 3.72 113.788 3.75267 113.844 3.818C113.909 3.874 113.942 3.94867 113.942 4.042V4.658C114.184 4.34067 114.488 4.084 114.852 3.888C115.225 3.68267 115.701 3.58 116.28 3.58C116.886 3.58 117.4 3.71533 117.82 3.986C118.249 4.24733 118.571 4.616 118.786 5.092C119 5.55867 119.108 6.10467 119.108 6.73V10.678C119.108 10.7713 119.08 10.8507 119.024 10.916C118.968 10.972 118.893 11 118.8 11H118.1C118.006 11 117.927 10.972 117.862 10.916C117.806 10.8507 117.778 10.7713 117.778 10.678V6.8C117.778 6.14667 117.619 5.638 117.302 5.274C116.984 4.90067 116.518 4.714 115.902 4.714C115.323 4.714 114.856 4.90067 114.502 5.274C114.156 5.638 113.984 6.14667 113.984 6.8V10.678C113.984 10.7713 113.951 10.8507 113.886 10.916C113.83 10.972 113.755 11 113.662 11H112.962ZM125.065 11C124.963 11 124.883 10.972 124.827 10.916C124.771 10.8507 124.743 10.7713 124.743 10.678V1.522C124.743 1.42867 124.771 1.354 124.827 1.298C124.883 1.23267 124.963 1.2 125.065 1.2H125.807C125.901 1.2 125.975 1.23267 126.031 1.298C126.087 1.354 126.115 1.42867 126.115 1.522V9.782H130.777C130.88 9.782 130.959 9.81467 131.015 9.88C131.071 9.936 131.099 10.0153 131.099 10.118V10.678C131.099 10.7713 131.071 10.8507 131.015 10.916C130.959 10.972 130.88 11 130.777 11H125.065ZM134.48 11.14C134.013 11.14 133.589 11.0467 133.206 10.86C132.823 10.6733 132.515 10.4213 132.282 10.104C132.049 9.78667 131.932 9.42733 131.932 9.026C131.932 8.382 132.193 7.86867 132.716 7.486C133.239 7.10333 133.92 6.85133 134.76 6.73L136.846 6.436V6.03C136.846 5.582 136.715 5.232 136.454 4.98C136.202 4.728 135.787 4.602 135.208 4.602C134.788 4.602 134.447 4.686 134.186 4.854C133.934 5.022 133.757 5.23667 133.654 5.498C133.598 5.638 133.5 5.708 133.36 5.708H132.73C132.627 5.708 132.548 5.68 132.492 5.624C132.445 5.55867 132.422 5.484 132.422 5.4C132.422 5.26 132.473 5.08733 132.576 4.882C132.688 4.67667 132.856 4.476 133.08 4.28C133.304 4.084 133.589 3.92067 133.934 3.79C134.289 3.65 134.718 3.58 135.222 3.58C135.782 3.58 136.253 3.65467 136.636 3.804C137.019 3.944 137.317 4.13533 137.532 4.378C137.756 4.62067 137.915 4.896 138.008 5.204C138.111 5.512 138.162 5.82467 138.162 6.142V10.678C138.162 10.7713 138.129 10.8507 138.064 10.916C138.008 10.972 137.933 11 137.84 11H137.196C137.093 11 137.014 10.972 136.958 10.916C136.902 10.8507 136.874 10.7713 136.874 10.678V10.076C136.753 10.244 136.589 10.412 136.384 10.58C136.179 10.7387 135.922 10.874 135.614 10.986C135.306 11.0887 134.928 11.14 134.48 11.14ZM134.774 10.09C135.157 10.09 135.507 10.0107 135.824 9.852C136.141 9.684 136.389 9.42733 136.566 9.082C136.753 8.73667 136.846 8.30267 136.846 7.78V7.388L135.222 7.626C134.559 7.71933 134.06 7.878 133.724 8.102C133.388 8.31667 133.22 8.592 133.22 8.928C133.22 9.18933 133.295 9.40867 133.444 9.586C133.603 9.754 133.799 9.88 134.032 9.964C134.275 10.048 134.522 10.09 134.774 10.09ZM140.497 11C140.403 11 140.324 10.972 140.259 10.916C140.203 10.8507 140.175 10.7713 140.175 10.678V4.042C140.175 3.94867 140.203 3.874 140.259 3.818C140.324 3.75267 140.403 3.72 140.497 3.72H141.169C141.262 3.72 141.337 3.75267 141.393 3.818C141.449 3.874 141.477 3.94867 141.477 4.042V10.678C141.477 10.7713 141.449 10.8507 141.393 10.916C141.337 10.972 141.262 11 141.169 11H140.497ZM140.455 2.67C140.305 2.67 140.231 2.59533 140.231 2.446C140.231 2.37133 140.254 2.31067 140.301 2.264L141.351 1.004C141.435 0.901333 141.509 0.836 141.575 0.807999C141.64 0.770666 141.738 0.751999 141.869 0.751999H142.821C142.998 0.751999 143.087 0.840666 143.087 1.018C143.087 1.08333 143.063 1.13933 143.017 1.186L141.393 2.516C141.318 2.58133 141.248 2.62333 141.183 2.642C141.117 2.66067 141.033 2.67 140.931 2.67H140.455ZM146.167 11.14C145.645 11.14 145.197 11.0747 144.823 10.944C144.45 10.8133 144.147 10.6547 143.913 10.468C143.68 10.2813 143.503 10.0947 143.381 9.908C143.269 9.72133 143.209 9.572 143.199 9.46C143.19 9.35733 143.223 9.278 143.297 9.222C143.372 9.166 143.447 9.138 143.521 9.138H144.137C144.193 9.138 144.235 9.14733 144.263 9.166C144.301 9.17533 144.347 9.21267 144.403 9.278C144.525 9.40867 144.66 9.53933 144.809 9.67C144.959 9.80067 145.141 9.908 145.355 9.992C145.579 10.076 145.855 10.118 146.181 10.118C146.657 10.118 147.049 10.0293 147.357 9.852C147.665 9.66533 147.819 9.39467 147.819 9.04C147.819 8.80667 147.754 8.62 147.623 8.48C147.502 8.34 147.278 8.214 146.951 8.102C146.634 7.99 146.195 7.87333 145.635 7.752C145.075 7.62133 144.632 7.46267 144.305 7.276C143.979 7.08 143.745 6.85133 143.605 6.59C143.465 6.31933 143.395 6.016 143.395 5.68C143.395 5.33467 143.498 5.00333 143.703 4.686C143.909 4.35933 144.207 4.09333 144.599 3.888C145.001 3.68267 145.5 3.58 146.097 3.58C146.583 3.58 146.998 3.64067 147.343 3.762C147.689 3.88333 147.973 4.03733 148.197 4.224C148.421 4.40133 148.589 4.57867 148.701 4.756C148.813 4.93333 148.874 5.08267 148.883 5.204C148.893 5.29733 148.865 5.37667 148.799 5.442C148.734 5.498 148.659 5.526 148.575 5.526H147.987C147.922 5.526 147.866 5.512 147.819 5.484C147.782 5.456 147.745 5.42333 147.707 5.386C147.614 5.26467 147.502 5.14333 147.371 5.022C147.25 4.90067 147.087 4.80267 146.881 4.728C146.685 4.644 146.424 4.602 146.097 4.602C145.631 4.602 145.281 4.7 145.047 4.896C144.814 5.092 144.697 5.33933 144.697 5.638C144.697 5.81533 144.749 5.974 144.851 6.114C144.954 6.254 145.15 6.38 145.439 6.492C145.729 6.604 146.158 6.72533 146.727 6.856C147.343 6.97733 147.829 7.14067 148.183 7.346C148.538 7.55133 148.79 7.78933 148.939 8.06C149.089 8.33067 149.163 8.64333 149.163 8.998C149.163 9.39 149.047 9.74933 148.813 10.076C148.589 10.4027 148.253 10.664 147.805 10.86C147.367 11.0467 146.821 11.14 146.167 11.14ZM154.468 7.388C154.374 7.388 154.295 7.36 154.23 7.304C154.174 7.23867 154.146 7.15933 154.146 7.066V6.534C154.146 6.44067 154.174 6.366 154.23 6.31C154.295 6.24467 154.374 6.212 154.468 6.212H158.668C158.761 6.212 158.836 6.24467 158.892 6.31C158.957 6.366 158.99 6.44067 158.99 6.534V7.066C158.99 7.15933 158.957 7.23867 158.892 7.304C158.836 7.36 158.761 7.388 158.668 7.388H154.468ZM164.401 11C164.307 11 164.228 10.972 164.163 10.916C164.107 10.8507 164.079 10.7713 164.079 10.678V10.23C164.079 10.146 164.102 10.0527 164.149 9.95C164.195 9.84733 164.289 9.73533 164.429 9.614L167.397 6.646C167.873 6.24467 168.246 5.904 168.517 5.624C168.797 5.33467 168.993 5.05933 169.105 4.798C169.226 4.53667 169.287 4.266 169.287 3.986C169.287 3.454 169.137 3.034 168.839 2.726C168.54 2.40867 168.097 2.25 167.509 2.25C167.135 2.25 166.813 2.32933 166.543 2.488C166.272 2.63733 166.057 2.84733 165.899 3.118C165.749 3.37933 165.651 3.678 165.605 4.014C165.586 4.13533 165.535 4.21933 165.451 4.266C165.376 4.31267 165.306 4.336 165.241 4.336H164.513C164.429 4.336 164.359 4.31267 164.303 4.266C164.247 4.21 164.219 4.14467 164.219 4.07C164.228 3.71533 164.303 3.36067 164.443 3.006C164.583 2.642 164.788 2.31533 165.059 2.026C165.339 1.73667 165.679 1.50333 166.081 1.326C166.491 1.13933 166.967 1.046 167.509 1.046C168.246 1.046 168.848 1.18133 169.315 1.452C169.791 1.71333 170.141 2.06333 170.365 2.502C170.589 2.94067 170.701 3.42133 170.701 3.944C170.701 4.35467 170.631 4.73267 170.491 5.078C170.351 5.414 170.145 5.74533 169.875 6.072C169.613 6.38933 169.287 6.716 168.895 7.052L166.207 9.782H170.575C170.677 9.782 170.757 9.81 170.813 9.866C170.878 9.922 170.911 10.0013 170.911 10.104V10.678C170.911 10.7713 170.878 10.8507 170.813 10.916C170.757 10.972 170.677 11 170.575 11H164.401ZM176.047 11.14C175.403 11.14 174.857 11.042 174.409 10.846C173.971 10.6407 173.611 10.3607 173.331 10.006C173.051 9.65133 172.846 9.24533 172.715 8.788C172.594 8.33067 172.524 7.84533 172.505 7.332C172.496 7.08 172.487 6.814 172.477 6.534C172.477 6.254 172.477 5.974 172.477 5.694C172.487 5.40467 172.496 5.12933 172.505 4.868C172.515 4.35467 172.585 3.86933 172.715 3.412C172.855 2.94533 173.061 2.53933 173.331 2.194C173.611 1.83933 173.975 1.564 174.423 1.368C174.871 1.16267 175.413 1.06 176.047 1.06C176.691 1.06 177.233 1.16267 177.671 1.368C178.119 1.564 178.483 1.83933 178.763 2.194C179.043 2.53933 179.249 2.94533 179.379 3.412C179.519 3.86933 179.594 4.35467 179.603 4.868C179.613 5.12933 179.617 5.40467 179.617 5.694C179.627 5.974 179.627 6.254 179.617 6.534C179.617 6.814 179.613 7.08 179.603 7.332C179.594 7.84533 179.519 8.33067 179.379 8.788C179.249 9.24533 179.043 9.65133 178.763 10.006C178.493 10.3607 178.133 10.6407 177.685 10.846C177.247 11.042 176.701 11.14 176.047 11.14ZM176.047 9.95C176.775 9.95 177.312 9.712 177.657 9.236C178.012 8.75067 178.194 8.09267 178.203 7.262C178.222 6.99133 178.231 6.73 178.231 6.478C178.231 6.21667 178.231 5.96 178.231 5.708C178.231 5.44667 178.222 5.19 178.203 4.938C178.194 4.126 178.012 3.47733 177.657 2.992C177.312 2.49733 176.775 2.25 176.047 2.25C175.329 2.25 174.792 2.49733 174.437 2.992C174.092 3.47733 173.91 4.126 173.891 4.938C173.891 5.19 173.887 5.44667 173.877 5.708C173.877 5.96 173.877 6.21667 173.877 6.478C173.887 6.73 173.891 6.99133 173.891 7.262C173.91 8.09267 174.097 8.75067 174.451 9.236C174.806 9.712 175.338 9.95 176.047 9.95ZM181.504 11C181.411 11 181.331 10.972 181.266 10.916C181.21 10.8507 181.182 10.7713 181.182 10.678V10.23C181.182 10.146 181.205 10.0527 181.252 9.95C181.299 9.84733 181.392 9.73533 181.532 9.614L184.5 6.646C184.976 6.24467 185.349 5.904 185.62 5.624C185.9 5.33467 186.096 5.05933 186.208 4.798C186.329 4.53667 186.39 4.266 186.39 3.986C186.39 3.454 186.241 3.034 185.942 2.726C185.643 2.40867 185.2 2.25 184.612 2.25C184.239 2.25 183.917 2.32933 183.646 2.488C183.375 2.63733 183.161 2.84733 183.002 3.118C182.853 3.37933 182.755 3.678 182.708 4.014C182.689 4.13533 182.638 4.21933 182.554 4.266C182.479 4.31267 182.409 4.336 182.344 4.336H181.616C181.532 4.336 181.462 4.31267 181.406 4.266C181.35 4.21 181.322 4.14467 181.322 4.07C181.331 3.71533 181.406 3.36067 181.546 3.006C181.686 2.642 181.891 2.31533 182.162 2.026C182.442 1.73667 182.783 1.50333 183.184 1.326C183.595 1.13933 184.071 1.046 184.612 1.046C185.349 1.046 185.951 1.18133 186.418 1.452C186.894 1.71333 187.244 2.06333 187.468 2.502C187.692 2.94067 187.804 3.42133 187.804 3.944C187.804 4.35467 187.734 4.73267 187.594 5.078C187.454 5.414 187.249 5.74533 186.978 6.072C186.717 6.38933 186.39 6.716 185.998 7.052L183.31 9.782H187.678C187.781 9.782 187.86 9.81 187.916 9.866C187.981 9.922 188.014 10.0013 188.014 10.104V10.678C188.014 10.7713 187.981 10.8507 187.916 10.916C187.86 10.972 187.781 11 187.678 11H181.504ZM189.721 11C189.628 11 189.548 10.972 189.483 10.916C189.427 10.8507 189.399 10.7713 189.399 10.678V10.23C189.399 10.146 189.422 10.0527 189.469 9.95C189.516 9.84733 189.609 9.73533 189.749 9.614L192.717 6.646C193.193 6.24467 193.566 5.904 193.837 5.624C194.117 5.33467 194.313 5.05933 194.425 4.798C194.546 4.53667 194.607 4.266 194.607 3.986C194.607 3.454 194.458 3.034 194.159 2.726C193.86 2.40867 193.417 2.25 192.829 2.25C192.456 2.25 192.134 2.32933 191.863 2.488C191.592 2.63733 191.378 2.84733 191.219 3.118C191.07 3.37933 190.972 3.678 190.925 4.014C190.906 4.13533 190.855 4.21933 190.771 4.266C190.696 4.31267 190.626 4.336 190.561 4.336H189.833C189.749 4.336 189.679 4.31267 189.623 4.266C189.567 4.21 189.539 4.14467 189.539 4.07C189.548 3.71533 189.623 3.36067 189.763 3.006C189.903 2.642 190.108 2.31533 190.379 2.026C190.659 1.73667 191 1.50333 191.401 1.326C191.812 1.13933 192.288 1.046 192.829 1.046C193.566 1.046 194.168 1.18133 194.635 1.452C195.111 1.71333 195.461 2.06333 195.685 2.502C195.909 2.94067 196.021 3.42133 196.021 3.944C196.021 4.35467 195.951 4.73267 195.811 5.078C195.671 5.414 195.466 5.74533 195.195 6.072C194.934 6.38933 194.607 6.716 194.215 7.052L191.527 9.782H195.895C195.998 9.782 196.077 9.81 196.133 9.866C196.198 9.922 196.231 10.0013 196.231 10.104V10.678C196.231 10.7713 196.198 10.8507 196.133 10.916C196.077 10.972 195.998 11 195.895 11H189.721Z" fill="#D0D0D0"/>
</svg>
