<svg width="22" height="22" viewBox="0 0 22 22" fill="none" xmlns="http://www.w3.org/2000/svg">
<path d="M0 1.57594C0 0.705805 0.723267 0 1.61551 0H20.3845C21.2767 0 22 0.705808 22 1.57594V20.4241C22 21.2945 21.2767 22 20.3845 22L1.61551 22C0.723267 22 0 21.2945 0 20.4241V1.57594ZM6.79715 18.4163V8.48205H3.49519V18.4163H6.79715ZM5.14615 7.12569C6.29761 7.12569 7.0143 6.36286 7.0143 5.40953C6.99284 4.43474 6.29762 3.69307 5.168 3.69307C4.0385 3.69307 3.3 4.43474 3.3 5.40953C3.3 6.36286 4.01653 7.12569 5.12463 7.12569H5.14615ZM11.8957 18.4163V12.8686C11.8957 12.5717 11.9171 12.2751 12.0043 12.0628C12.243 11.4696 12.7863 10.8552 13.6985 10.8552C14.8933 10.8552 15.3713 11.7662 15.3713 13.1017V18.4163H18.6729V12.7201C18.6729 9.66878 17.0439 8.24893 14.8715 8.24893C13.1199 8.24893 12.3346 9.21163 11.8958 9.88855V9.92277H11.8737C11.881 9.91145 11.8883 9.90004 11.8958 9.88855V8.48205H8.59384C8.63717 9.41421 8.59384 18.4163 8.59384 18.4163H11.8957Z" fill="#D9D9D9"/>
</svg>
